<?xml version="1.0" standalone="no"?><svg xmlns="http://www.w3.org/2000/svg" viewBox="0 0 1440 320"><path fill="#194350" fill-opacity="1" d="M0,128L30,138.7C60,149,120,171,180,160C240,149,300,107,360,85.3C420,64,480,64,540,58.7C600,53,660,43,720,32C780,21,840,11,900,53.3C960,96,1020,192,1080,197.3C1140,203,1200,117,1260,85.3C1320,53,1380,75,1410,85.3L1440,96L1440,0L1410,0C1380,0,1320,0,1260,0C1200,0,1140,0,1080,0C1020,0,960,0,900,0C840,0,780,0,720,0C660,0,600,0,540,0C480,0,420,0,360,0C300,0,240,0,180,0C120,0,60,0,30,0L0,0Z"></path></svg>